<svg xmlns="http://www.w3.org/2000/svg" viewBox="0 0 32 32" id="Chat"><g color="#000" fill="#000000" class="color000000 svgShape"><path d="M30 1028.362v15h-5v5l-4.623-5H6.928l3.089-3.489 14.245-.094.388-11.417z" opacity=".15" overflow="visible" style="isolation:auto;mix-blend-mode:normal" transform="translate(0 -1021.362)" fill="#000000" class="color000000 svgShape"></path><path fill="#999999" d="M31 1028.362v15h-5v5l-4.623-5H7.928l3.089-3.489 14.837-.094v-11.417z" overflow="visible" style="isolation:auto;mix-blend-mode:normal" transform="translate(0 -1021.362)" class="colorf05542 svgShape"></path><path style="isolation:auto;mix-blend-mode:normal" d="M1 1026.362v15h5v5l4.623-5H26v-15z" opacity=".15" overflow="visible" transform="translate(0 -1021.362)" fill="#000000" class="color000000 svgShape"></path><path fill="#ffffff" d="M2 1025.362v15h5v5l4.623-5H27v-15z" overflow="visible" style="isolation:auto;mix-blend-mode:normal" transform="translate(0 -1021.362)" class="color4bbfeb svgShape"></path><g opacity=".15" transform="translate(-1 -1020.362)" fill="#000000" class="color000000 svgShape"><circle style="isolation:auto;mix-blend-mode:normal" cx="9.5" cy="1032.862" r="1.5" overflow="visible" fill="#000000" class="color000000 svgShape"></circle><circle cx="14.5" cy="1032.862" r="1.5" overflow="visible" style="isolation:auto;mix-blend-mode:normal" fill="#000000" class="color000000 svgShape"></circle><circle style="isolation:auto;mix-blend-mode:normal" cx="19.5" cy="1032.862" r="1.5" overflow="visible" fill="#000000" class="color000000 svgShape"></circle></g><g fill="#484848" transform="translate(0 -1021.362)" class="color34485c svgShape"><circle cx="9.5" cy="1032.862" r="1.5" overflow="visible" style="isolation:auto;mix-blend-mode:normal" fill="#000000" class="color000000 svgShape"></circle><circle style="isolation:auto;mix-blend-mode:normal" cx="14.5" cy="1032.862" r="1.5" overflow="visible" fill="#000000" class="color000000 svgShape"></circle><circle cx="19.5" cy="1032.862" r="1.5" overflow="visible" style="isolation:auto;mix-blend-mode:normal" fill="#000000" class="color000000 svgShape"></circle></g></g></svg>