<svg xmlns="http://www.w3.org/2000/svg" data-name="Layer 1" viewBox="0 0 512 512" id="pharmacy"><path fill="#00efd1" d="M246.51,38.5a144.2,144.2,0,1,1,89.63,261.29c-1.86.07-3.74.11-5.62.11a144.155,144.155,0,0,1-144.2-144.2q0-5.19.36-10.29A143.829,143.829,0,0,1,246.51,38.5Zm172.78,73.62a45.641,45.641,0,0,0-48.74-50.44c-8.42.63-47.25,10.32-55.69,12.55l-.01.01c-11.78-5.04-17.4-12-24.04-12.53a45.725,45.725,0,0,0-49.07,50.45c3.32,30.22,14.31,82.14,47.11,135.53a4.1,4.1,0,0,0,7.46-1.12l3.6-13.96a90.092,90.092,0,0,1,22.27-39.91l1.2-1.26a8.2,8.2,0,0,1,11.57-.24l1.46,1.39a90.039,90.039,0,0,1,24.54,41.04l3.67,13.21a4.1,4.1,0,0,0,7.44,1.05C404.96,194.39,415.97,142.37,419.29,112.12Z"></path><path fill="#d4e1f4" d="M314.85,74.24l.01-.01c8.44-2.23,47.27-11.92,55.69-12.55a45.641,45.641,0,0,1,48.74,50.44c-3.32,30.25-14.33,82.27-47.23,135.77a4.1,4.1,0,0,1-7.44-1.05l-3.67-13.21a90.039,90.039,0,0,0-24.54-41.04l-1.46-1.39a8.2,8.2,0,0,0-11.57.24l-1.2,1.26a90.092,90.092,0,0,0-22.27,39.91l-3.6,13.96a4.1,4.1,0,0,1-7.46,1.12c-32.8-53.39-43.79-105.31-47.11-135.53a45.725,45.725,0,0,1,49.07-50.45C297.45,62.24,303.07,69.2,314.85,74.24Z"></path><path fill="#00acea" d="M336.14,421.27V460.5a40.118,40.118,0,0,1-40,40H77.29a40.111,40.111,0,0,1-40-40V421.27H336.14Z"></path><path fill="#fedb41" d="M336.14,299.79V421.27H37.29V232.08h170.9A144.09,144.09,0,0,0,330.52,299.9C332.4,299.9,334.28,299.86,336.14,299.79ZM252,352V312H203V263H163v49H114v40h49v49h40V352Z"></path><polygon fill="#00efd1" points="252 312 252 352 203 352 203 401 163 401 163 352 114 352 114 312 163 312 163 263 203 263 203 312 252 312"></polygon><path fill="#fedb41" d="M86.95,108.16H77.01V48.5a10,10,0,0,1,10-10h159.5a144.42,144.42,0,0,0-52.2,69.75l-.28-.09Z"></path><path fill="#00acea" d="M208.19,232.08H37.29V219.9a81.25,81.25,0,0,1,13.69-45.07,78.48,78.48,0,0,1,35.97-29.42h99.73q-.36,5.1-.36,10.29A143.489,143.489,0,0,0,208.19,232.08Z"></path><path fill="#d4e1f4" d="M194.03,108.16l.28.09a143.462,143.462,0,0,0-7.63,37.16H86.95V108.16Z"></path></svg>